<?xml version="1.0" encoding="UTF-8"?>
<svg width="14px" height="15px" viewBox="0 0 14 15" version="1.1" xmlns="http://www.w3.org/2000/svg" xmlns:xlink="http://www.w3.org/1999/xlink">
    <!-- Generator: Sketch 41 (35326) - http://www.bohemiancoding.com/sketch -->
    <title>location</title>
    <desc>Created with Sketch.</desc>
    <defs></defs>
    <g id="Page-1" stroke="none" stroke-width="1" fill="none" fill-rule="evenodd">
        <g id="Desktop-HD" transform="translate(-715.000000, -357.000000)" fill="#606060">
            <path d="M720.947266,371.697266 L720.902832,371.697266 C720.886881,371.697266 720.87207,371.694987 720.858398,371.69043 C720.780924,371.667643 720.718262,371.625489 720.67041,371.563965 C720.622558,371.502441 720.598633,371.430664 720.598633,371.348633 L720.598633,366.098633 L715.348633,366.098633 C715.271158,366.098633 715.200521,366.074707 715.136719,366.026855 C715.072916,365.979004 715.031901,365.916342 715.013672,365.838867 C714.990885,365.76595 714.995443,365.691895 715.027344,365.616699 C715.059245,365.541504 715.109375,365.485677 715.177734,365.449219 L728.473633,357.745117 C728.541993,357.708659 728.616048,357.694987 728.695801,357.704102 C728.775554,357.713216 728.842773,357.745117 728.897461,357.799805 C728.952149,357.85905 728.985189,357.927408 728.996582,358.004883 C729.007975,358.082357 728.993164,358.155273 728.952148,358.223633 L721.254883,371.526367 C721.222982,371.581055 721.179688,371.623209 721.125,371.652832 C721.070312,371.682455 721.011068,371.697266 720.947266,371.697266 Z M716.654297,365.401367 L720.947266,365.401367 C721.047527,365.401367 721.131836,365.435547 721.200195,365.503906 C721.268555,365.572266 721.302734,365.654296 721.302734,365.75 L721.302734,370.049805 L727.6875,359.009766 L716.654297,365.401367 Z" id="location"></path>
        </g>
    </g>
</svg>