<?xml version="1.0" encoding="UTF-8"?>
<svg width="16px" height="11px" viewBox="0 0 16 11" version="1.1" xmlns="http://www.w3.org/2000/svg" xmlns:xlink="http://www.w3.org/1999/xlink">
    <!-- Generator: Sketch 41 (35326) - http://www.bohemiancoding.com/sketch -->
    <title>envelope</title>
    <desc>Created with Sketch.</desc>
    <defs></defs>
    <g id="Page-1" stroke="none" stroke-width="1" fill="none" fill-rule="evenodd">
        <g id="Desktop-HD" transform="translate(-446.000000, -360.000000)" fill="#606060">
            <path d="M460,360.601562 L447.203125,360.601562 C446.86979,360.601562 446.585939,360.718749 446.351562,360.953125 C446.117186,361.187501 446,361.468748 446,361.796875 L446,369 C446,369.333335 446.117186,369.617186 446.351562,369.851562 C446.585939,370.085939 446.86979,370.203125 447.203125,370.203125 L460,370.203125 C460.333335,370.203125 460.617186,370.085939 460.851562,369.851562 C461.085939,369.617186 461.203125,369.333335 461.203125,369 L461.203125,361.796875 C461.203125,361.468748 461.085939,361.187501 460.851562,360.953125 C460.617186,360.718749 460.333335,360.601562 460,360.601562 Z M460,361.398438 C460.010417,361.398438 460.022135,361.39974 460.035156,361.402344 C460.048177,361.404948 460.059896,361.40625 460.070312,361.40625 L454.046875,365.421875 C453.927083,365.5 453.777345,365.539062 453.597656,365.539062 C453.417968,365.539062 453.270834,365.5 453.15625,365.421875 L447.132812,361.40625 C447.143229,361.40625 447.153646,361.404948 447.164062,361.402344 C447.174479,361.39974 447.1875,361.398438 447.203125,361.398438 L460,361.398438 Z M460,369.398438 L447.203125,369.398438 C447.088541,369.398438 446.992188,369.359375 446.914062,369.28125 C446.835937,369.203125 446.796875,369.109376 446.796875,369 L446.796875,362.148438 L452.710938,366.085938 C452.835938,366.169271 452.97526,366.231771 453.128906,366.273438 C453.282553,366.315104 453.440103,366.335938 453.601562,366.335938 C453.757813,366.335938 453.914062,366.315104 454.070312,366.273438 C454.226563,366.231771 454.364583,366.169271 454.484375,366.085938 L460.398438,362.148438 L460.398438,369 C460.398438,369.109376 460.359375,369.203125 460.28125,369.28125 C460.203125,369.359375 460.109376,369.398438 460,369.398438 Z" id="envelope"></path>
        </g>
    </g>
</svg>