<?xml version="1.0" encoding="UTF-8"?>
<svg width="35px" height="35px" viewBox="0 0 35 35" version="1.1" xmlns="http://www.w3.org/2000/svg" xmlns:xlink="http://www.w3.org/1999/xlink">
    <!-- Generator: Sketch 41 (35326) - http://www.bohemiancoding.com/sketch -->
    <title>Shape</title>
    <desc>Created with Sketch.</desc>
    <defs></defs>
    <g id="Page-1" stroke="none" stroke-width="1" fill="none" fill-rule="evenodd">
        <g id="Desktop-HD" transform="translate(-568.000000, -1617.000000)" fill="#ACACAC">
            <path d="M585.545455,1617 C575.918182,1617 568.089091,1624.8513 568.089091,1634.5 C568.089091,1644.1487 575.918182,1652 585.545455,1652 C595.169091,1652 603,1644.1487 603,1634.5 C603,1624.8513 595.169091,1617 585.545455,1617 Z M600.432727,1634.5 C600.432727,1637.91432 599.276364,1641.0625 597.349091,1643.57812 C596.803636,1643.15156 596.223636,1641.99766 596.769091,1640.80182 C597.32,1639.5987 597.463636,1636.81328 597.336364,1635.72865 C597.216364,1634.64583 596.654545,1632.03724 595.129091,1632.01172 C593.605455,1631.98984 592.56,1631.4849 591.654545,1629.67292 C589.776364,1625.90313 595.18,1625.17943 593.301818,1623.09401 C592.776364,1622.50703 590.06,1625.50391 589.661818,1621.5099 C589.636364,1621.2237 589.907273,1620.79531 590.272727,1620.35052 C596.170909,1622.3375 600.432727,1627.92839 600.432727,1634.5 L600.432727,1634.5 Z M583.5,1619.72161 C583.143636,1620.41797 582.203636,1620.70052 581.632727,1621.2237 C580.389091,1622.35208 579.854545,1622.19531 579.185455,1623.27813 C578.510909,1624.36094 576.336364,1625.91953 576.336364,1626.70339 C576.336364,1627.48724 577.434545,1628.40964 577.983636,1628.23099 C578.532727,1628.0487 579.981818,1628.05964 580.832727,1628.35859 C581.685455,1628.6612 587.949091,1628.9638 585.952727,1634.27214 C585.32,1635.96016 582.547273,1635.67578 581.809091,1638.47031 C581.698182,1638.88047 581.314545,1640.63229 581.290909,1641.20469 C581.245455,1642.09063 581.916364,1645.43021 581.063636,1645.43021 C580.207273,1645.43021 577.903636,1642.44245 577.903636,1641.90104 C577.903636,1641.35964 577.307273,1639.46198 577.307273,1637.83594 C577.307273,1636.21172 574.547273,1636.23724 574.547273,1634.07708 C574.547273,1632.13021 576.043636,1631.16042 575.707273,1630.22526 C575.378182,1629.29557 572.749091,1629.26458 571.652727,1629.14974 C573.567273,1624.17135 578.070909,1620.4763 583.5,1619.72161 L583.5,1619.72161 Z M580.861818,1648.66406 C581.756364,1648.1901 581.847273,1647.5776 582.658182,1647.54661 C583.585455,1647.50469 584.34,1647.18385 585.385455,1646.95234 C586.312727,1646.75 587.972727,1645.80573 589.432727,1645.68542 C590.665455,1645.58516 593.096364,1645.74922 593.750909,1646.94141 C591.396364,1648.51094 588.572727,1649.42604 585.543636,1649.42604 C583.909091,1649.42604 582.334545,1649.15443 580.861818,1648.66406 Z" id="Shape"></path>
        </g>
    </g>
</svg>