<?xml version="1.0" encoding="UTF-8"?>
<svg width="14px" height="15px" viewBox="0 0 14 15" version="1.1" xmlns="http://www.w3.org/2000/svg" xmlns:xlink="http://www.w3.org/1999/xlink">
    <!-- Generator: Sketch 41 (35326) - http://www.bohemiancoding.com/sketch -->
    <title>phone</title>
    <desc>Created with Sketch.</desc>
    <defs></defs>
    <g id="Page-1" stroke="none" stroke-width="1" fill="none" fill-rule="evenodd">
        <g id="Desktop-HD" transform="translate(-244.000000, -357.000000)" fill="#606060">
            <path d="M255.197266,371.697266 C254.887368,371.697266 254.572918,371.675619 254.253906,371.632324 C253.934894,371.58903 253.61133,371.524089 253.283203,371.4375 C252.955076,371.350911 252.624676,371.242676 252.291992,371.112793 C251.959308,370.98291 251.622072,370.831381 251.280273,370.658203 C250.965819,370.498697 250.653647,370.322104 250.34375,370.128418 C250.033853,369.934732 249.728517,369.726238 249.427734,369.50293 C249.126952,369.279621 248.830731,369.042644 248.539062,368.791992 C248.247394,368.54134 247.964845,368.281577 247.691406,368.012695 C247.422525,367.739256 247.162762,367.456707 246.912109,367.165039 C246.661457,366.873371 246.42562,366.57715 246.20459,366.276367 C245.98356,365.975584 245.776205,365.66911 245.58252,365.356934 C245.388834,365.044758 245.21224,364.733726 245.052734,364.423828 C244.879556,364.08203 244.728028,363.743654 244.598145,363.408691 C244.468261,363.073729 244.360026,362.742189 244.273438,362.414062 C244.186849,362.085936 244.120768,361.762371 244.075195,361.443359 C244.029622,361.124347 244.006836,360.809897 244.006836,360.5 C244.006836,360.299478 244.047851,360.102377 244.129883,359.908691 C244.211914,359.715006 244.309895,359.536134 244.423828,359.37207 C244.537761,359.208007 244.65511,359.061036 244.775879,358.931152 C244.896648,358.801269 244.998046,358.69987 245.080078,358.626953 C245.194011,358.517578 245.323892,358.408204 245.469727,358.298828 C245.615561,358.189453 245.76481,358.090332 245.91748,358.001465 C246.070151,357.912597 246.222818,357.839681 246.375488,357.782715 C246.528158,357.725748 246.670572,357.697266 246.802734,357.697266 C246.930339,357.697266 247.073892,357.741699 247.233398,357.830566 C247.392904,357.919434 247.572916,358.057291 247.773438,358.244141 C247.919272,358.38086 248.074218,358.540364 248.238281,358.722656 C248.402345,358.904949 248.568684,359.105468 248.737305,359.324219 C248.787435,359.388021 248.87858,359.509927 249.010742,359.689941 C249.142904,359.869955 249.278482,360.071613 249.41748,360.294922 C249.556479,360.51823 249.679524,360.743814 249.786621,360.97168 C249.893718,361.199545 249.947266,361.393228 249.947266,361.552734 C249.947266,361.812501 249.823081,362.040364 249.574707,362.236328 C249.326333,362.432293 249.044923,362.628254 248.730469,362.824219 C248.611979,362.897136 248.49349,362.971191 248.375,363.046387 C248.25651,363.121582 248.151693,363.195638 248.060547,363.268555 C247.964843,363.346029 247.902181,363.405273 247.872559,363.446289 C247.842936,363.487305 247.828125,363.51237 247.828125,363.521484 C247.992188,363.9362 248.233722,364.364581 248.552734,364.806641 C248.871746,365.2487 249.23063,365.669106 249.629395,366.067871 C250.02816,366.466636 250.448565,366.825519 250.890625,367.144531 C251.332685,367.463543 251.761066,367.707356 252.175781,367.875977 C252.184896,367.871419 252.209961,367.855469 252.250977,367.828125 C252.291992,367.800781 252.351237,367.739258 252.428711,367.643555 C252.501628,367.552408 252.575683,367.447592 252.650879,367.329102 C252.726075,367.210611 252.802408,367.089844 252.879883,366.966797 C253.07129,366.652342 253.264973,366.370932 253.460938,366.122559 C253.656902,365.874185 253.887043,365.75 254.151367,365.75 C254.310873,365.75 254.504556,365.803548 254.732422,365.910645 C254.960288,366.017741 255.184732,366.140787 255.405762,366.279785 C255.626791,366.418783 255.82731,366.554361 256.007324,366.686523 C256.187338,366.818686 256.311523,366.90983 256.379883,366.959961 C256.594077,367.128582 256.793456,367.294921 256.978027,367.458984 C257.162599,367.623048 257.323242,367.780273 257.459961,367.930664 C257.642254,368.131186 257.777832,368.310058 257.866699,368.467285 C257.955567,368.624513 258,368.769205 258,368.901367 C258,369.033529 257.971517,369.175943 257.914551,369.328613 C257.857584,369.481283 257.784668,369.633951 257.695801,369.786621 C257.606933,369.939291 257.507813,370.088541 257.398438,370.234375 C257.289062,370.380209 257.181967,370.510091 257.077148,370.624023 C257.004231,370.706055 256.902833,370.807454 256.772949,370.928223 C256.643066,371.048991 256.494955,371.16748 256.328613,371.283691 C256.162271,371.399903 255.98226,371.497884 255.788574,371.577637 C255.594888,371.65739 255.397787,371.697266 255.197266,371.697266 Z M246.795898,358.401367 C246.700195,358.401367 246.538413,358.460611 246.310547,358.579102 C246.082681,358.697592 245.829754,358.884439 245.551758,359.139648 C245.291991,359.381186 245.086915,359.623859 244.936523,359.867676 C244.786132,360.111492 244.710938,360.322265 244.710938,360.5 C244.710938,361.675787 245.036781,362.884597 245.688477,364.126465 C246.340173,365.368333 247.174149,366.49853 248.19043,367.51709 C249.206711,368.53565 250.334629,369.370765 251.574219,370.022461 C252.813808,370.674157 254.021478,371 255.197266,371 C255.379558,371 255.592609,370.923666 255.836426,370.770996 C256.080242,370.618326 256.320637,370.412111 256.557617,370.152344 C256.812827,369.874348 256.999674,369.620281 257.118164,369.390137 C257.236654,369.159992 257.298177,368.997071 257.302734,368.901367 C257.289062,368.837565 257.178549,368.681479 256.971191,368.433105 C256.763834,368.184732 256.407229,367.866864 255.901367,367.479492 C255.687173,367.310872 255.483237,367.162761 255.289551,367.035156 C255.095865,366.907551 254.92269,366.800456 254.77002,366.713867 C254.617349,366.627278 254.487468,366.562337 254.380371,366.519043 C254.273274,366.475748 254.19694,366.451823 254.151367,366.447266 C254.14681,366.451823 254.124024,366.467773 254.083008,366.495117 C254.041992,366.522461 253.982748,366.586263 253.905273,366.686523 C253.836914,366.773112 253.766276,366.873372 253.693359,366.987305 C253.620442,367.101238 253.547526,367.217447 253.474609,367.335938 C253.278645,367.65495 253.080405,367.940917 252.879883,368.193848 C252.679361,368.446779 252.444663,368.573242 252.175781,368.573242 C252.130208,368.573242 252.086914,368.569824 252.045898,368.562988 C252.004883,368.556152 251.963867,368.54362 251.922852,368.525391 C251.462563,368.343098 250.990888,368.078778 250.507812,367.732422 C250.024737,367.386066 249.566734,366.996421 249.133789,366.563477 C248.700844,366.130532 248.312339,365.673668 247.968262,365.192871 C247.624184,364.712074 247.358725,364.241539 247.171875,363.78125 C247.130859,363.671874 247.121745,363.534018 247.144531,363.367676 C247.167318,363.201334 247.288085,363.017905 247.506836,362.817383 C247.620769,362.717122 247.754068,362.616862 247.906738,362.516602 C248.059408,362.416341 248.213215,362.31836 248.368164,362.222656 C248.482097,362.154297 248.596028,362.083659 248.709961,362.010742 C248.823894,361.937825 248.926432,361.867188 249.017578,361.798828 C249.117839,361.716796 249.18164,361.655274 249.208984,361.614258 C249.236328,361.573242 249.25,361.550456 249.25,361.545898 C249.25,361.500325 249.227214,361.423991 249.181641,361.316895 C249.136067,361.209798 249.069987,361.079916 248.983398,360.927246 C248.896809,360.774576 248.789714,360.60254 248.662109,360.411133 C248.534505,360.219726 248.388673,360.01465 248.224609,359.795898 C247.83268,359.294594 247.513673,358.939129 247.267578,358.729492 C247.021483,358.519856 246.864258,358.410482 246.795898,358.401367 Z" id="phone"></path>
        </g>
    </g>
</svg>