<?xml version="1.0" encoding="UTF-8"?>
<svg width="17px" height="23px" viewBox="0 0 17 23" version="1.1" xmlns="http://www.w3.org/2000/svg" xmlns:xlink="http://www.w3.org/1999/xlink">
    <!-- Generator: Sketch 41 (35326) - http://www.bohemiancoding.com/sketch -->
    <title>arrow-down</title>
    <desc>Created with Sketch.</desc>
    <defs></defs>
    <g id="Page-1" stroke="none" stroke-width="1" fill="none" fill-rule="evenodd">
        <g id="Desktop-HD" transform="translate(-268.000000, -573.000000)" fill="#606060">
            <path d="M276.824219,595.421875 L284.019531,588.226562 C284.136719,588.109374 284.195312,587.966798 284.195312,587.798828 C284.195312,587.630859 284.136719,587.488282 284.019531,587.371094 C283.902343,587.253906 283.76172,587.195312 283.597656,587.195312 C283.433593,587.195312 283.292969,587.253906 283.175781,587.371094 L277,593.546875 L277,574 C277,573.835937 276.941407,573.695313 276.824219,573.578125 C276.707031,573.460937 276.566407,573.402344 276.402344,573.402344 C276.23828,573.402344 276.097657,573.460937 275.980469,573.578125 C275.863281,573.695313 275.804688,573.835937 275.804688,574 L275.804688,593.546875 L269.628906,587.371094 C269.511718,587.253906 269.369141,587.195312 269.201172,587.195312 C269.033202,587.195312 268.890626,587.253906 268.773438,587.371094 C268.71875,587.433594 268.675781,587.501953 268.644531,587.576172 C268.613281,587.650391 268.597656,587.726562 268.597656,587.804688 C268.597656,587.875 268.613281,587.947265 268.644531,588.021484 C268.675781,588.095703 268.71875,588.164062 268.773438,588.226562 L275.980469,595.421875 C276.097657,595.539063 276.23828,595.597656 276.402344,595.597656 C276.566407,595.597656 276.707031,595.539063 276.824219,595.421875 Z" id="arrow-down"></path>
        </g>
    </g>
</svg>